<mxfile host="app.diagrams.net" modified="2023-11-01T10:29:25.681Z" agent="Mozilla/5.0 (X11; Linux x86_64; rv:109.0) Gecko/20100101 Firefox/118.0" version="22.0.8" etag="_zZGqC_E0ypTNZtLCKsy" type="github">
  <diagram name="第 1 页" id="59YxJmf42WNL0DxlgpfT">
    <mxGraphModel>
      <root>
        <mxCell id="0" />
        <mxCell id="1" parent="0" />
      </root>
    </mxGraphModel>
  </diagram>
</mxfile>
